<svg width="166" height="109" viewBox="0 0 166 109" fill="none" xmlns="http://www.w3.org/2000/svg">
<rect x="0.5" width="165" height="109" rx="6" fill="#1B76F2" fill-opacity="0.12"/>
<mask id="mask0_534_398" style="mask-type:alpha" maskUnits="userSpaceOnUse" x="0" y="0" width="166" height="109">
<rect x="0.5" width="165" height="109" rx="6" fill="white" fill-opacity="0.18"/>
</mask>
<g mask="url(#mask0_534_398)">
<path d="M142.375 53V27.5H151.375L154.375 17H142.375V5.00003H152.875V-5.49997H134.875C134.281 -5.51266 133.69 -5.40493 133.138 -5.18327C132.586 -4.96161 132.085 -4.63061 131.665 -4.2102C131.244 -3.78978 130.913 -3.28864 130.692 -2.73694C130.47 -2.18524 130.362 -1.5944 130.375 -0.999974V17H121.375V27.5H130.375V45.5" stroke="white" stroke-width="2" stroke-linecap="round" stroke-linejoin="round"/>
<path d="M142.375 53H160.375C163.558 53 166.61 51.7357 168.86 49.4853C171.111 47.2348 172.375 44.1826 172.375 41V-4C172.375 -7.1826 171.111 -10.2348 168.86 -12.4853C166.61 -14.7357 163.558 -16 160.375 -16H115.375C112.192 -16 109.14 -14.7357 106.89 -12.4853C104.639 -10.2348 103.375 -7.1826 103.375 -4V41C103.375 44.1826 104.639 47.2348 106.89 49.4853C109.14 51.7357 112.192 53 115.375 53H136.375" stroke="white" stroke-width="2" stroke-linecap="round" stroke-linejoin="round"/>
</g>
<path d="M19.904 89V76.31H28.274V78.128H22.226V81.728H27.86V83.546H22.226V89H19.904ZM33.1832 89.18C32.3912 89.18 31.6952 88.994 31.0952 88.622C30.4952 88.238 30.0272 87.692 29.6912 86.984C29.3552 86.276 29.1872 85.43 29.1872 84.446C29.1872 83.462 29.3552 82.622 29.6912 81.926C30.0272 81.218 30.4952 80.678 31.0952 80.306C31.6952 79.922 32.3912 79.73 33.1832 79.73C33.9512 79.73 34.6232 79.922 35.1992 80.306C35.7872 80.678 36.1772 81.182 36.3692 81.818H36.1712L36.3692 79.91H38.5292C38.4932 80.282 38.4572 80.66 38.4212 81.044C38.3972 81.428 38.3852 81.806 38.3852 82.178V89H36.1532L36.1352 87.128H36.3512C36.1592 87.752 35.7692 88.25 35.1812 88.622C34.5932 88.994 33.9272 89.18 33.1832 89.18ZM33.8132 87.452C34.5212 87.452 35.0912 87.206 35.5232 86.714C35.9552 86.21 36.1712 85.454 36.1712 84.446C36.1712 83.438 35.9552 82.688 35.5232 82.196C35.0912 81.704 34.5212 81.458 33.8132 81.458C33.1052 81.458 32.5352 81.704 32.1032 82.196C31.6712 82.688 31.4552 83.438 31.4552 84.446C31.4552 85.454 31.6652 86.21 32.0852 86.714C32.5172 87.206 33.0932 87.452 33.8132 87.452ZM45.0113 89.18C44.0753 89.18 43.2533 88.988 42.5453 88.604C41.8493 88.22 41.3093 87.674 40.9253 86.966C40.5413 86.246 40.3493 85.394 40.3493 84.41C40.3493 83.426 40.5413 82.586 40.9253 81.89C41.3213 81.194 41.8673 80.66 42.5633 80.288C43.2593 79.916 44.0753 79.73 45.0113 79.73C45.6113 79.73 46.1933 79.826 46.7573 80.018C47.3333 80.198 47.8013 80.462 48.1613 80.81L47.4773 82.376C47.1533 82.076 46.7873 81.854 46.3793 81.71C45.9833 81.554 45.5933 81.476 45.2093 81.476C44.4053 81.476 43.7753 81.728 43.3193 82.232C42.8753 82.736 42.6533 83.468 42.6533 84.428C42.6533 85.388 42.8753 86.126 43.3193 86.642C43.7753 87.158 44.4053 87.416 45.2093 87.416C45.5813 87.416 45.9653 87.344 46.3613 87.2C46.7693 87.056 47.1413 86.834 47.4773 86.534L48.1613 88.082C47.7893 88.43 47.3153 88.7 46.7393 88.892C46.1753 89.084 45.5993 89.18 45.0113 89.18ZM54.1219 89.18C52.5979 89.18 51.4039 88.76 50.5399 87.92C49.6759 87.08 49.2439 85.928 49.2439 84.464C49.2439 83.516 49.4299 82.688 49.8019 81.98C50.1739 81.272 50.6899 80.72 51.3499 80.324C52.0219 79.928 52.8019 79.73 53.6899 79.73C54.5659 79.73 55.2979 79.916 55.8859 80.288C56.4739 80.66 56.9179 81.182 57.2179 81.854C57.5299 82.526 57.6859 83.312 57.6859 84.212V84.806H51.0619V83.618H56.0839L55.7779 83.87C55.7779 83.03 55.5979 82.388 55.2379 81.944C54.8899 81.5 54.3799 81.278 53.7079 81.278C52.9639 81.278 52.3879 81.542 51.9799 82.07C51.5839 82.598 51.3859 83.336 51.3859 84.284V84.518C51.3859 85.502 51.6259 86.24 52.1059 86.732C52.5979 87.212 53.2879 87.452 54.1759 87.452C54.6919 87.452 55.1719 87.386 55.6159 87.254C56.0719 87.11 56.5039 86.882 56.9119 86.57L57.5779 88.082C57.1459 88.43 56.6299 88.7 56.0299 88.892C55.4299 89.084 54.7939 89.18 54.1219 89.18ZM64.7932 89.18C64.0252 89.18 63.3532 88.994 62.7772 88.622C62.2012 88.238 61.8172 87.722 61.6252 87.074H61.8232V89H59.5912V75.752H61.8412V81.764H61.6252C61.8292 81.14 62.2192 80.648 62.7952 80.288C63.3712 79.916 64.0372 79.73 64.7932 79.73C65.5972 79.73 66.2992 79.922 66.8992 80.306C67.4992 80.69 67.9672 81.236 68.3032 81.944C68.6392 82.64 68.8072 83.48 68.8072 84.464C68.8072 85.448 68.6392 86.294 68.3032 87.002C67.9672 87.698 67.4932 88.238 66.8812 88.622C66.2812 88.994 65.5852 89.18 64.7932 89.18ZM64.1632 87.452C64.8712 87.452 65.4412 87.206 65.8732 86.714C66.3172 86.222 66.5392 85.472 66.5392 84.464C66.5392 83.456 66.3172 82.706 65.8732 82.214C65.4412 81.71 64.8712 81.458 64.1632 81.458C63.4552 81.458 62.8852 81.704 62.4532 82.196C62.0212 82.688 61.8052 83.438 61.8052 84.446C61.8052 85.454 62.0212 86.21 62.4532 86.714C62.8852 87.206 63.4552 87.452 64.1632 87.452ZM74.8573 89.18C73.9213 89.18 73.1113 88.988 72.4273 88.604C71.7433 88.22 71.2093 87.674 70.8253 86.966C70.4533 86.258 70.2673 85.418 70.2673 84.446C70.2673 83.474 70.4533 82.64 70.8253 81.944C71.2093 81.236 71.7433 80.69 72.4273 80.306C73.1113 79.922 73.9213 79.73 74.8573 79.73C75.7933 79.73 76.6033 79.922 77.2873 80.306C77.9833 80.69 78.5173 81.236 78.8893 81.944C79.2733 82.64 79.4653 83.474 79.4653 84.446C79.4653 85.418 79.2733 86.258 78.8893 86.966C78.5173 87.674 77.9833 88.22 77.2873 88.604C76.6033 88.988 75.7933 89.18 74.8573 89.18ZM74.8573 87.452C75.5653 87.452 76.1293 87.206 76.5493 86.714C76.9693 86.21 77.1793 85.454 77.1793 84.446C77.1793 83.438 76.9693 82.688 76.5493 82.196C76.1293 81.704 75.5653 81.458 74.8573 81.458C74.1493 81.458 73.5853 81.704 73.1653 82.196C72.7453 82.688 72.5353 83.438 72.5353 84.446C72.5353 85.454 72.7453 86.21 73.1653 86.714C73.5853 87.206 74.1493 87.452 74.8573 87.452ZM85.5096 89.18C84.5736 89.18 83.7636 88.988 83.0796 88.604C82.3956 88.22 81.8616 87.674 81.4776 86.966C81.1056 86.258 80.9196 85.418 80.9196 84.446C80.9196 83.474 81.1056 82.64 81.4776 81.944C81.8616 81.236 82.3956 80.69 83.0796 80.306C83.7636 79.922 84.5736 79.73 85.5096 79.73C86.4456 79.73 87.2556 79.922 87.9396 80.306C88.6356 80.69 89.1696 81.236 89.5416 81.944C89.9256 82.64 90.1176 83.474 90.1176 84.446C90.1176 85.418 89.9256 86.258 89.5416 86.966C89.1696 87.674 88.6356 88.22 87.9396 88.604C87.2556 88.988 86.4456 89.18 85.5096 89.18ZM85.5096 87.452C86.2176 87.452 86.7816 87.206 87.2016 86.714C87.6216 86.21 87.8316 85.454 87.8316 84.446C87.8316 83.438 87.6216 82.688 87.2016 82.196C86.7816 81.704 86.2176 81.458 85.5096 81.458C84.8016 81.458 84.2376 81.704 83.8176 82.196C83.3976 82.688 83.1876 83.438 83.1876 84.446C83.1876 85.454 83.3976 86.21 83.8176 86.714C84.2376 87.206 84.8016 87.452 85.5096 87.452ZM92.058 89V75.752H94.308V83.78H94.344L98.034 79.91H100.752L96.162 84.716L96.18 83.816L101.076 89H98.286L94.344 84.932H94.308V89H92.058Z" fill="white"/>
<path d="M19.556 67V58.54H24.836V59.356H20.552V62.32H24.572V63.136H20.552V67H19.556ZM28.4356 67.108C27.8596 67.108 27.3556 66.984 26.9236 66.736C26.4996 66.48 26.1716 66.12 25.9396 65.656C25.7076 65.184 25.5916 64.628 25.5916 63.988C25.5916 63.34 25.7076 62.784 25.9396 62.32C26.1716 61.856 26.4996 61.5 26.9236 61.252C27.3556 60.996 27.8596 60.868 28.4356 60.868C29.0196 60.868 29.5236 60.996 29.9476 61.252C30.3796 61.5 30.7116 61.856 30.9436 62.32C31.1836 62.784 31.3036 63.34 31.3036 63.988C31.3036 64.628 31.1836 65.184 30.9436 65.656C30.7116 66.12 30.3796 66.48 29.9476 66.736C29.5236 66.984 29.0196 67.108 28.4356 67.108ZM28.4356 66.316C29.0116 66.316 29.4676 66.12 29.8036 65.728C30.1396 65.328 30.3076 64.748 30.3076 63.988C30.3076 63.22 30.1356 62.64 29.7916 62.248C29.4556 61.848 29.0036 61.648 28.4356 61.648C27.8676 61.648 27.4156 61.848 27.0796 62.248C26.7436 62.64 26.5756 63.22 26.5756 63.988C26.5756 64.748 26.7436 65.328 27.0796 65.728C27.4156 66.12 27.8676 66.316 28.4356 66.316ZM32.8191 67V58.168H33.7911V67H32.8191ZM35.6785 67V58.168H36.6505V67H35.6785ZM41.0098 67.108C40.4338 67.108 39.9298 66.984 39.4978 66.736C39.0738 66.48 38.7458 66.12 38.5138 65.656C38.2818 65.184 38.1658 64.628 38.1658 63.988C38.1658 63.34 38.2818 62.784 38.5138 62.32C38.7458 61.856 39.0738 61.5 39.4978 61.252C39.9298 60.996 40.4338 60.868 41.0098 60.868C41.5938 60.868 42.0978 60.996 42.5218 61.252C42.9538 61.5 43.2858 61.856 43.5178 62.32C43.7578 62.784 43.8778 63.34 43.8778 63.988C43.8778 64.628 43.7578 65.184 43.5178 65.656C43.2858 66.12 42.9538 66.48 42.5218 66.736C42.0978 66.984 41.5938 67.108 41.0098 67.108ZM41.0098 66.316C41.5858 66.316 42.0418 66.12 42.3778 65.728C42.7138 65.328 42.8818 64.748 42.8818 63.988C42.8818 63.22 42.7098 62.64 42.3658 62.248C42.0298 61.848 41.5778 61.648 41.0098 61.648C40.4418 61.648 39.9898 61.848 39.6538 62.248C39.3178 62.64 39.1498 63.22 39.1498 63.988C39.1498 64.748 39.3178 65.328 39.6538 65.728C39.9898 66.12 40.4418 66.316 41.0098 66.316ZM46.9193 67L44.6873 60.976H45.7193L47.5793 66.28H47.2673L49.1873 60.976H50.0273L51.9113 66.28H51.6113L53.4833 60.976H54.4673L52.2233 67H51.2873L49.3433 61.612H49.8233L47.8673 67H46.9193ZM60.9939 67.108C60.2819 67.108 59.7419 66.912 59.3739 66.52C59.0139 66.128 58.8339 65.528 58.8339 64.72V60.976H59.8059V64.696C59.8059 65.248 59.9179 65.656 60.1419 65.92C60.3659 66.176 60.7139 66.304 61.1859 66.304C61.7139 66.304 62.1379 66.132 62.4579 65.788C62.7779 65.444 62.9379 64.984 62.9379 64.408V60.976H63.9099V67H62.9619V65.644H63.1179C62.9499 66.108 62.6779 66.468 62.3019 66.724C61.9339 66.98 61.4979 67.108 60.9939 67.108ZM67.7997 67.108C67.3197 67.108 66.8717 67.044 66.4557 66.916C66.0397 66.78 65.6957 66.592 65.4237 66.352L65.7597 65.668C66.0557 65.9 66.3757 66.072 66.7197 66.184C67.0717 66.296 67.4357 66.352 67.8117 66.352C68.2917 66.352 68.6517 66.268 68.8917 66.1C69.1397 65.924 69.2637 65.684 69.2637 65.38C69.2637 65.148 69.1837 64.964 69.0237 64.828C68.8717 64.684 68.6197 64.572 68.2677 64.492L67.1517 64.264C66.6397 64.152 66.2557 63.964 65.9997 63.7C65.7437 63.428 65.6157 63.084 65.6157 62.668C65.6157 62.316 65.7077 62.008 65.8917 61.744C66.0757 61.472 66.3437 61.26 66.6957 61.108C67.0477 60.948 67.4597 60.868 67.9317 60.868C68.3717 60.868 68.7757 60.936 69.1437 61.072C69.5197 61.2 69.8317 61.388 70.0797 61.636L69.7317 62.308C69.4917 62.076 69.2157 61.904 68.9037 61.792C68.5997 61.672 68.2837 61.612 67.9557 61.612C67.4837 61.612 67.1277 61.708 66.8877 61.9C66.6557 62.084 66.5397 62.328 66.5397 62.632C66.5397 62.864 66.6117 63.056 66.7557 63.208C66.9077 63.352 67.1397 63.46 67.4517 63.532L68.5677 63.76C69.1117 63.88 69.5157 64.068 69.7797 64.324C70.0517 64.572 70.1877 64.908 70.1877 65.332C70.1877 65.692 70.0877 66.008 69.8877 66.28C69.6877 66.544 69.4077 66.748 69.0477 66.892C68.6957 67.036 68.2797 67.108 67.7997 67.108ZM77.3497 67.108C76.7737 67.108 76.2697 66.984 75.8377 66.736C75.4137 66.48 75.0857 66.12 74.8537 65.656C74.6217 65.184 74.5057 64.628 74.5057 63.988C74.5057 63.34 74.6217 62.784 74.8537 62.32C75.0857 61.856 75.4137 61.5 75.8377 61.252C76.2697 60.996 76.7737 60.868 77.3497 60.868C77.9337 60.868 78.4377 60.996 78.8617 61.252C79.2937 61.5 79.6257 61.856 79.8577 62.32C80.0977 62.784 80.2177 63.34 80.2177 63.988C80.2177 64.628 80.0977 65.184 79.8577 65.656C79.6257 66.12 79.2937 66.48 78.8617 66.736C78.4377 66.984 77.9337 67.108 77.3497 67.108ZM77.3497 66.316C77.9257 66.316 78.3817 66.12 78.7177 65.728C79.0537 65.328 79.2217 64.748 79.2217 63.988C79.2217 63.22 79.0497 62.64 78.7057 62.248C78.3697 61.848 77.9177 61.648 77.3497 61.648C76.7817 61.648 76.3297 61.848 75.9937 62.248C75.6577 62.64 75.4897 63.22 75.4897 63.988C75.4897 64.748 75.6577 65.328 75.9937 65.728C76.3297 66.12 76.7817 66.316 77.3497 66.316ZM81.7332 67V62.368C81.7332 62.144 81.7212 61.916 81.6972 61.684C81.6812 61.444 81.6612 61.208 81.6372 60.976H82.5732L82.6932 62.296H82.5492C82.7252 61.832 83.0052 61.48 83.3892 61.24C83.7812 60.992 84.2332 60.868 84.7452 60.868C85.4572 60.868 85.9932 61.06 86.3532 61.444C86.7212 61.82 86.9052 62.416 86.9052 63.232V67H85.9332V63.292C85.9332 62.724 85.8172 62.312 85.5852 62.056C85.3612 61.792 85.0092 61.66 84.5292 61.66C83.9692 61.66 83.5252 61.832 83.1972 62.176C82.8692 62.52 82.7052 62.98 82.7052 63.556V67H81.7332Z" fill="#8A8F9F"/>
</svg>
