<svg width="166" height="109" viewBox="0 0 166 109" fill="none" xmlns="http://www.w3.org/2000/svg">
<rect x="0.5" width="165" height="109" rx="6" fill="#C534B0" fill-opacity="0.12"/>
<mask id="mask0_534_418" style="mask-type:alpha" maskUnits="userSpaceOnUse" x="0" y="0" width="166" height="109">
<rect x="0.5" width="165" height="109" rx="6" fill="white" fill-opacity="0.18"/>
</mask>
<g mask="url(#mask0_534_418)">
<path d="M156.499 4.99918H171.498V-4.00047C171.498 -7.18294 170.234 -10.2351 167.983 -12.4854C165.733 -14.7358 162.681 -16 159.499 -16H114.245C112.681 -16 111.133 -15.6877 109.692 -15.0814C108.25 -14.4752 106.944 -13.5872 105.85 -12.4695C104.756 -11.3519 103.896 -10.0271 103.321 -8.57279C102.746 -7.11849 102.467 -5.564 102.501 -4.00047V4.99918H117.5" stroke="white" stroke-width="2" stroke-linecap="round" stroke-linejoin="round"/>
<path d="M171.497 10.999V40.9978C171.497 44.1803 170.233 47.2324 167.983 49.4828C165.732 51.7331 162.68 52.9974 159.498 52.9974H114.5C111.317 52.9974 108.265 51.7331 106.015 49.4828C103.764 47.2324 102.5 44.1803 102.5 40.9978V10.999" stroke="white" stroke-width="2" stroke-linecap="round" stroke-linejoin="round"/>
<path d="M136.999 37.9977C146.112 37.9977 153.499 30.6107 153.499 21.4984C153.499 12.386 146.112 4.99902 136.999 4.99902C127.887 4.99902 120.5 12.386 120.5 21.4984C120.5 30.6107 127.887 37.9977 136.999 37.9977Z" stroke="white" stroke-width="2" stroke-linecap="round" stroke-linejoin="round"/>
<path d="M137 31.9981C142.798 31.9981 147.499 27.2973 147.499 21.4985C147.499 15.6998 142.798 10.9989 137 10.9989C131.201 10.9989 126.5 15.6998 126.5 21.4985C126.5 27.2973 131.201 31.9981 137 31.9981Z" stroke="white" stroke-width="2" stroke-linecap="round" stroke-linejoin="round"/>
</g>
<path d="M19.904 89V76.31H22.226V89H19.904ZM24.8392 89V82.178C24.8392 81.806 24.8272 81.428 24.8032 81.044C24.7792 80.66 24.7432 80.282 24.6952 79.91H26.8732L27.0532 81.71H26.8372C27.1252 81.074 27.5512 80.588 28.1152 80.252C28.6792 79.904 29.3332 79.73 30.0772 79.73C31.1452 79.73 31.9492 80.03 32.4892 80.63C33.0292 81.23 33.2992 82.166 33.2992 83.438V89H31.0492V83.546C31.0492 82.814 30.9052 82.292 30.6172 81.98C30.3412 81.656 29.9212 81.494 29.3572 81.494C28.6612 81.494 28.1092 81.71 27.7012 82.142C27.2932 82.574 27.0892 83.15 27.0892 83.87V89H24.8392ZM38.9249 89.18C38.1449 89.18 37.4249 89.09 36.7649 88.91C36.1169 88.718 35.5709 88.454 35.1269 88.118L35.7569 86.606C36.2129 86.918 36.7169 87.158 37.2689 87.326C37.8209 87.494 38.3789 87.578 38.9429 87.578C39.5429 87.578 39.9869 87.476 40.2749 87.272C40.5749 87.068 40.7249 86.792 40.7249 86.444C40.7249 86.168 40.6289 85.952 40.4369 85.796C40.2569 85.628 39.9629 85.502 39.5549 85.418L37.7549 85.076C36.9869 84.908 36.3989 84.62 35.9909 84.212C35.5949 83.804 35.3969 83.27 35.3969 82.61C35.3969 82.046 35.5469 81.548 35.8469 81.116C36.1589 80.684 36.5969 80.348 37.1609 80.108C37.7369 79.856 38.4089 79.73 39.1769 79.73C39.8489 79.73 40.4789 79.82 41.0669 80C41.6669 80.18 42.1709 80.45 42.5789 80.81L41.9309 82.268C41.5589 81.968 41.1329 81.734 40.6529 81.566C40.1729 81.398 39.7049 81.314 39.2489 81.314C38.6249 81.314 38.1689 81.428 37.8809 81.656C37.5929 81.872 37.4489 82.154 37.4489 82.502C37.4489 82.766 37.5329 82.988 37.7009 83.168C37.8809 83.336 38.1569 83.462 38.5289 83.546L40.3289 83.888C41.1329 84.044 41.7389 84.32 42.1469 84.716C42.5669 85.1 42.7769 85.628 42.7769 86.3C42.7769 86.9 42.6149 87.416 42.2909 87.848C41.9669 88.28 41.5169 88.61 40.9409 88.838C40.3649 89.066 39.6929 89.18 38.9249 89.18ZM48.5026 89.18C47.4226 89.18 46.6066 88.898 46.0546 88.334C45.5026 87.77 45.2266 86.924 45.2266 85.796V81.602H43.4806V79.91H45.2266V77.588L47.4766 77.012V79.91H49.9066V81.602H47.4766V85.652C47.4766 86.276 47.5966 86.714 47.8366 86.966C48.0766 87.218 48.4066 87.344 48.8266 87.344C49.0546 87.344 49.2466 87.326 49.4026 87.29C49.5706 87.254 49.7326 87.206 49.8886 87.146V88.928C49.6846 89.012 49.4566 89.072 49.2046 89.108C48.9646 89.156 48.7306 89.18 48.5026 89.18ZM54.9449 89.18C54.1529 89.18 53.4569 88.994 52.8569 88.622C52.2569 88.238 51.7889 87.692 51.4529 86.984C51.1169 86.276 50.9489 85.43 50.9489 84.446C50.9489 83.462 51.1169 82.622 51.4529 81.926C51.7889 81.218 52.2569 80.678 52.8569 80.306C53.4569 79.922 54.1529 79.73 54.9449 79.73C55.7129 79.73 56.3849 79.922 56.9609 80.306C57.5489 80.678 57.9389 81.182 58.1309 81.818H57.9329L58.1309 79.91H60.2909C60.2549 80.282 60.2189 80.66 60.1829 81.044C60.1589 81.428 60.1469 81.806 60.1469 82.178V89H57.9149L57.8969 87.128H58.1129C57.9209 87.752 57.5309 88.25 56.9429 88.622C56.3549 88.994 55.6889 89.18 54.9449 89.18ZM55.5749 87.452C56.2829 87.452 56.8529 87.206 57.2849 86.714C57.7169 86.21 57.9329 85.454 57.9329 84.446C57.9329 83.438 57.7169 82.688 57.2849 82.196C56.8529 81.704 56.2829 81.458 55.5749 81.458C54.8669 81.458 54.2969 81.704 53.8649 82.196C53.4329 82.688 53.2169 83.438 53.2169 84.446C53.2169 85.454 53.4269 86.21 53.8469 86.714C54.2789 87.206 54.8549 87.452 55.5749 87.452ZM66.809 93.032C65.969 93.032 65.207 92.942 64.523 92.762C63.851 92.582 63.251 92.306 62.723 91.934L63.209 90.314C63.557 90.542 63.917 90.728 64.289 90.872C64.661 91.016 65.045 91.124 65.441 91.196C65.837 91.268 66.239 91.304 66.647 91.304C67.487 91.304 68.111 91.094 68.519 90.674C68.939 90.266 69.149 89.678 69.149 88.91V86.732H69.329C69.137 87.356 68.747 87.854 68.159 88.226C67.583 88.598 66.917 88.784 66.161 88.784C65.345 88.784 64.631 88.604 64.019 88.244C63.419 87.872 62.951 87.344 62.615 86.66C62.279 85.976 62.111 85.172 62.111 84.248C62.111 83.324 62.279 82.526 62.615 81.854C62.951 81.17 63.419 80.648 64.019 80.288C64.631 79.916 65.345 79.73 66.161 79.73C66.929 79.73 67.595 79.916 68.159 80.288C68.735 80.648 69.119 81.14 69.311 81.764L69.149 81.656L69.329 79.91H71.507C71.459 80.282 71.423 80.66 71.399 81.044C71.375 81.428 71.363 81.806 71.363 82.178V88.64C71.363 90.068 70.973 91.154 70.193 91.898C69.425 92.654 68.297 93.032 66.809 93.032ZM66.773 87.056C67.493 87.056 68.063 86.816 68.483 86.336C68.915 85.844 69.131 85.148 69.131 84.248C69.131 83.348 68.915 82.658 68.483 82.178C68.063 81.698 67.493 81.458 66.773 81.458C66.041 81.458 65.459 81.698 65.027 82.178C64.595 82.658 64.379 83.348 64.379 84.248C64.379 85.148 64.595 85.844 65.027 86.336C65.459 86.816 66.041 87.056 66.773 87.056ZM73.7763 89V82.232C73.7763 81.848 73.7643 81.458 73.7403 81.062C73.7283 80.666 73.6983 80.282 73.6503 79.91H75.8283L76.0803 82.394H75.7203C75.8403 81.794 76.0383 81.296 76.3143 80.9C76.6023 80.504 76.9503 80.21 77.3583 80.018C77.7663 79.826 78.2103 79.73 78.6903 79.73C78.9063 79.73 79.0803 79.742 79.2123 79.766C79.3443 79.778 79.4763 79.808 79.6083 79.856L79.5903 81.836C79.3623 81.74 79.1643 81.68 78.9963 81.656C78.8403 81.632 78.6423 81.62 78.4023 81.62C77.8863 81.62 77.4483 81.728 77.0883 81.944C76.7403 82.16 76.4763 82.46 76.2963 82.844C76.1283 83.228 76.0443 83.666 76.0443 84.158V89H73.7763ZM84.2828 89.18C83.4908 89.18 82.7948 88.994 82.1948 88.622C81.5948 88.238 81.1268 87.692 80.7908 86.984C80.4548 86.276 80.2868 85.43 80.2868 84.446C80.2868 83.462 80.4548 82.622 80.7908 81.926C81.1268 81.218 81.5948 80.678 82.1948 80.306C82.7948 79.922 83.4908 79.73 84.2828 79.73C85.0508 79.73 85.7228 79.922 86.2988 80.306C86.8868 80.678 87.2768 81.182 87.4688 81.818H87.2708L87.4688 79.91H89.6288C89.5928 80.282 89.5568 80.66 89.5208 81.044C89.4968 81.428 89.4848 81.806 89.4848 82.178V89H87.2528L87.2348 87.128H87.4508C87.2588 87.752 86.8688 88.25 86.2808 88.622C85.6928 88.994 85.0268 89.18 84.2828 89.18ZM84.9128 87.452C85.6208 87.452 86.1908 87.206 86.6228 86.714C87.0548 86.21 87.2708 85.454 87.2708 84.446C87.2708 83.438 87.0548 82.688 86.6228 82.196C86.1908 81.704 85.6208 81.458 84.9128 81.458C84.2048 81.458 83.6348 81.704 83.2028 82.196C82.7708 82.688 82.5548 83.438 82.5548 84.446C82.5548 85.454 82.7648 86.21 83.1848 86.714C83.6168 87.206 84.1928 87.452 84.9128 87.452ZM91.9349 89V82.178C91.9349 81.806 91.9229 81.428 91.8989 81.044C91.8749 80.66 91.8389 80.282 91.7909 79.91H93.9689L94.1489 81.71H93.9329C94.1849 81.086 94.5689 80.6 95.0849 80.252C95.6129 79.904 96.2369 79.73 96.9569 79.73C97.6769 79.73 98.2709 79.904 98.7389 80.252C99.2189 80.588 99.5549 81.116 99.7469 81.836H99.4589C99.7109 81.188 100.125 80.678 100.701 80.306C101.277 79.922 101.937 79.73 102.681 79.73C103.701 79.73 104.463 80.03 104.967 80.63C105.471 81.23 105.723 82.166 105.723 83.438V89H103.473V83.528C103.473 82.808 103.353 82.292 103.113 81.98C102.873 81.656 102.489 81.494 101.961 81.494C101.337 81.494 100.845 81.716 100.485 82.16C100.125 82.592 99.9449 83.18 99.9449 83.924V89H97.6949V83.528C97.6949 82.808 97.5749 82.292 97.3349 81.98C97.0949 81.656 96.7109 81.494 96.1829 81.494C95.5589 81.494 95.0669 81.716 94.7069 82.16C94.3589 82.592 94.1849 83.18 94.1849 83.924V89H91.9349Z" fill="white"/>
<path d="M19.556 67V58.54H24.836V59.356H20.552V62.32H24.572V63.136H20.552V67H19.556ZM28.4356 67.108C27.8596 67.108 27.3556 66.984 26.9236 66.736C26.4996 66.48 26.1716 66.12 25.9396 65.656C25.7076 65.184 25.5916 64.628 25.5916 63.988C25.5916 63.34 25.7076 62.784 25.9396 62.32C26.1716 61.856 26.4996 61.5 26.9236 61.252C27.3556 60.996 27.8596 60.868 28.4356 60.868C29.0196 60.868 29.5236 60.996 29.9476 61.252C30.3796 61.5 30.7116 61.856 30.9436 62.32C31.1836 62.784 31.3036 63.34 31.3036 63.988C31.3036 64.628 31.1836 65.184 30.9436 65.656C30.7116 66.12 30.3796 66.48 29.9476 66.736C29.5236 66.984 29.0196 67.108 28.4356 67.108ZM28.4356 66.316C29.0116 66.316 29.4676 66.12 29.8036 65.728C30.1396 65.328 30.3076 64.748 30.3076 63.988C30.3076 63.22 30.1356 62.64 29.7916 62.248C29.4556 61.848 29.0036 61.648 28.4356 61.648C27.8676 61.648 27.4156 61.848 27.0796 62.248C26.7436 62.64 26.5756 63.22 26.5756 63.988C26.5756 64.748 26.7436 65.328 27.0796 65.728C27.4156 66.12 27.8676 66.316 28.4356 66.316ZM32.8191 67V58.168H33.7911V67H32.8191ZM35.6785 67V58.168H36.6505V67H35.6785ZM41.0098 67.108C40.4338 67.108 39.9298 66.984 39.4978 66.736C39.0738 66.48 38.7458 66.12 38.5138 65.656C38.2818 65.184 38.1658 64.628 38.1658 63.988C38.1658 63.34 38.2818 62.784 38.5138 62.32C38.7458 61.856 39.0738 61.5 39.4978 61.252C39.9298 60.996 40.4338 60.868 41.0098 60.868C41.5938 60.868 42.0978 60.996 42.5218 61.252C42.9538 61.5 43.2858 61.856 43.5178 62.32C43.7578 62.784 43.8778 63.34 43.8778 63.988C43.8778 64.628 43.7578 65.184 43.5178 65.656C43.2858 66.12 42.9538 66.48 42.5218 66.736C42.0978 66.984 41.5938 67.108 41.0098 67.108ZM41.0098 66.316C41.5858 66.316 42.0418 66.12 42.3778 65.728C42.7138 65.328 42.8818 64.748 42.8818 63.988C42.8818 63.22 42.7098 62.64 42.3658 62.248C42.0298 61.848 41.5778 61.648 41.0098 61.648C40.4418 61.648 39.9898 61.848 39.6538 62.248C39.3178 62.64 39.1498 63.22 39.1498 63.988C39.1498 64.748 39.3178 65.328 39.6538 65.728C39.9898 66.12 40.4418 66.316 41.0098 66.316ZM46.9193 67L44.6873 60.976H45.7193L47.5793 66.28H47.2673L49.1873 60.976H50.0273L51.9113 66.28H51.6113L53.4833 60.976H54.4673L52.2233 67H51.2873L49.3433 61.612H49.8233L47.8673 67H46.9193ZM60.9939 67.108C60.2819 67.108 59.7419 66.912 59.3739 66.52C59.0139 66.128 58.8339 65.528 58.8339 64.72V60.976H59.8059V64.696C59.8059 65.248 59.9179 65.656 60.1419 65.92C60.3659 66.176 60.7139 66.304 61.1859 66.304C61.7139 66.304 62.1379 66.132 62.4579 65.788C62.7779 65.444 62.9379 64.984 62.9379 64.408V60.976H63.9099V67H62.9619V65.644H63.1179C62.9499 66.108 62.6779 66.468 62.3019 66.724C61.9339 66.98 61.4979 67.108 60.9939 67.108ZM67.7997 67.108C67.3197 67.108 66.8717 67.044 66.4557 66.916C66.0397 66.78 65.6957 66.592 65.4237 66.352L65.7597 65.668C66.0557 65.9 66.3757 66.072 66.7197 66.184C67.0717 66.296 67.4357 66.352 67.8117 66.352C68.2917 66.352 68.6517 66.268 68.8917 66.1C69.1397 65.924 69.2637 65.684 69.2637 65.38C69.2637 65.148 69.1837 64.964 69.0237 64.828C68.8717 64.684 68.6197 64.572 68.2677 64.492L67.1517 64.264C66.6397 64.152 66.2557 63.964 65.9997 63.7C65.7437 63.428 65.6157 63.084 65.6157 62.668C65.6157 62.316 65.7077 62.008 65.8917 61.744C66.0757 61.472 66.3437 61.26 66.6957 61.108C67.0477 60.948 67.4597 60.868 67.9317 60.868C68.3717 60.868 68.7757 60.936 69.1437 61.072C69.5197 61.2 69.8317 61.388 70.0797 61.636L69.7317 62.308C69.4917 62.076 69.2157 61.904 68.9037 61.792C68.5997 61.672 68.2837 61.612 67.9557 61.612C67.4837 61.612 67.1277 61.708 66.8877 61.9C66.6557 62.084 66.5397 62.328 66.5397 62.632C66.5397 62.864 66.6117 63.056 66.7557 63.208C66.9077 63.352 67.1397 63.46 67.4517 63.532L68.5677 63.76C69.1117 63.88 69.5157 64.068 69.7797 64.324C70.0517 64.572 70.1877 64.908 70.1877 65.332C70.1877 65.692 70.0877 66.008 69.8877 66.28C69.6877 66.544 69.4077 66.748 69.0477 66.892C68.6957 67.036 68.2797 67.108 67.7997 67.108ZM77.3497 67.108C76.7737 67.108 76.2697 66.984 75.8377 66.736C75.4137 66.48 75.0857 66.12 74.8537 65.656C74.6217 65.184 74.5057 64.628 74.5057 63.988C74.5057 63.34 74.6217 62.784 74.8537 62.32C75.0857 61.856 75.4137 61.5 75.8377 61.252C76.2697 60.996 76.7737 60.868 77.3497 60.868C77.9337 60.868 78.4377 60.996 78.8617 61.252C79.2937 61.5 79.6257 61.856 79.8577 62.32C80.0977 62.784 80.2177 63.34 80.2177 63.988C80.2177 64.628 80.0977 65.184 79.8577 65.656C79.6257 66.12 79.2937 66.48 78.8617 66.736C78.4377 66.984 77.9337 67.108 77.3497 67.108ZM77.3497 66.316C77.9257 66.316 78.3817 66.12 78.7177 65.728C79.0537 65.328 79.2217 64.748 79.2217 63.988C79.2217 63.22 79.0497 62.64 78.7057 62.248C78.3697 61.848 77.9177 61.648 77.3497 61.648C76.7817 61.648 76.3297 61.848 75.9937 62.248C75.6577 62.64 75.4897 63.22 75.4897 63.988C75.4897 64.748 75.6577 65.328 75.9937 65.728C76.3297 66.12 76.7817 66.316 77.3497 66.316ZM81.7332 67V62.368C81.7332 62.144 81.7212 61.916 81.6972 61.684C81.6812 61.444 81.6612 61.208 81.6372 60.976H82.5732L82.6932 62.296H82.5492C82.7252 61.832 83.0052 61.48 83.3892 61.24C83.7812 60.992 84.2332 60.868 84.7452 60.868C85.4572 60.868 85.9932 61.06 86.3532 61.444C86.7212 61.82 86.9052 62.416 86.9052 63.232V67H85.9332V63.292C85.9332 62.724 85.8172 62.312 85.5852 62.056C85.3612 61.792 85.0092 61.66 84.5292 61.66C83.9692 61.66 83.5252 61.832 83.1972 62.176C82.8692 62.52 82.7052 62.98 82.7052 63.556V67H81.7332Z" fill="#8A8F9F"/>
</svg>
