<svg width="166" height="109" viewBox="0 0 166 109" fill="none" xmlns="http://www.w3.org/2000/svg">
<rect x="0.5" width="165" height="109" rx="6" fill="#1D9BF0" fill-opacity="0.12"/>
<mask id="mask0_534_408" style="mask-type:alpha" maskUnits="userSpaceOnUse" x="0" y="0" width="166" height="109">
<rect x="0.5" width="165" height="109" rx="6" fill="white" fill-opacity="0.18"/>
</mask>
<g mask="url(#mask0_534_408)">
<path d="M125.167 6.33333H146.5C147.561 6.33333 148.578 6.75476 149.328 7.5049C150.079 8.25505 150.5 9.27247 150.5 10.3333V13C150.5 14.0609 150.079 15.0783 149.328 15.8284C148.578 16.5786 147.561 17 146.5 17H129.167V37C129.167 37 129.167 43.6667 135.833 43.6667H146.5C147.561 43.6667 148.578 44.0881 149.328 44.8382C150.079 45.5884 150.5 46.6058 150.5 47.6667V50.3333C150.5 51.3942 150.079 52.4116 149.328 53.1618C148.578 53.9119 147.561 54.3333 146.5 54.3333H131.833C118.5 54.3333 118.5 41 118.5 41V-3C118.5 -4.06087 118.921 -5.07828 119.672 -5.82843C120.422 -6.57857 121.439 -7 122.5 -7H125.167C126.228 -7 127.245 -6.57857 127.995 -5.82843C128.745 -5.07828 129.167 -4.06087 129.167 -3V1" stroke="white" stroke-width="2" stroke-linecap="round" stroke-linejoin="round"/>
</g>
<path d="M22.892 89V78.218H18.698V76.31H29.408V78.218H25.214V89H22.892ZM32.1581 89L28.6121 79.91H30.9341L33.4901 86.984H33.0221L35.6141 79.91H37.2161L39.7901 86.984H39.3761L41.9141 79.91H44.1101L40.5641 89H38.5841L35.8661 81.764H36.8201L34.1561 89H32.1581ZM45.5287 89V79.91H47.7787V89H45.5287ZM45.4027 78.2V76.004H47.9047V78.2H45.4027ZM54.11 89.18C53.03 89.18 52.214 88.898 51.662 88.334C51.11 87.77 50.834 86.924 50.834 85.796V81.602H49.088V79.91H50.834V77.588L53.084 77.012V79.91H55.514V81.602H53.084V85.652C53.084 86.276 53.204 86.714 53.444 86.966C53.684 87.218 54.014 87.344 54.434 87.344C54.662 87.344 54.854 87.326 55.01 87.29C55.178 87.254 55.34 87.206 55.496 87.146V88.928C55.292 89.012 55.064 89.072 54.812 89.108C54.572 89.156 54.338 89.18 54.11 89.18ZM60.4206 89.18C59.3406 89.18 58.5246 88.898 57.9726 88.334C57.4206 87.77 57.1446 86.924 57.1446 85.796V81.602H55.3986V79.91H57.1446V77.588L59.3946 77.012V79.91H61.8246V81.602H59.3946V85.652C59.3946 86.276 59.5146 86.714 59.7546 86.966C59.9946 87.218 60.3246 87.344 60.7446 87.344C60.9726 87.344 61.1646 87.326 61.3206 87.29C61.4886 87.254 61.6506 87.206 61.8066 87.146V88.928C61.6026 89.012 61.3746 89.072 61.1226 89.108C60.8826 89.156 60.6486 89.18 60.4206 89.18ZM67.657 89.18C66.133 89.18 64.939 88.76 64.075 87.92C63.211 87.08 62.779 85.928 62.779 84.464C62.779 83.516 62.965 82.688 63.337 81.98C63.709 81.272 64.225 80.72 64.885 80.324C65.557 79.928 66.337 79.73 67.225 79.73C68.101 79.73 68.833 79.916 69.421 80.288C70.009 80.66 70.453 81.182 70.753 81.854C71.065 82.526 71.221 83.312 71.221 84.212V84.806H64.597V83.618H69.619L69.313 83.87C69.313 83.03 69.133 82.388 68.773 81.944C68.425 81.5 67.915 81.278 67.243 81.278C66.499 81.278 65.923 81.542 65.515 82.07C65.119 82.598 64.921 83.336 64.921 84.284V84.518C64.921 85.502 65.161 86.24 65.641 86.732C66.133 87.212 66.823 87.452 67.711 87.452C68.227 87.452 68.707 87.386 69.151 87.254C69.607 87.11 70.039 86.882 70.447 86.57L71.113 88.082C70.681 88.43 70.165 88.7 69.565 88.892C68.965 89.084 68.329 89.18 67.657 89.18ZM73.1083 89V82.232C73.1083 81.848 73.0963 81.458 73.0723 81.062C73.0603 80.666 73.0303 80.282 72.9823 79.91H75.1603L75.4123 82.394H75.0523C75.1723 81.794 75.3703 81.296 75.6463 80.9C75.9343 80.504 76.2823 80.21 76.6903 80.018C77.0983 79.826 77.5423 79.73 78.0223 79.73C78.2383 79.73 78.4123 79.742 78.5443 79.766C78.6763 79.778 78.8083 79.808 78.9403 79.856L78.9223 81.836C78.6943 81.74 78.4963 81.68 78.3283 81.656C78.1723 81.632 77.9743 81.62 77.7343 81.62C77.2183 81.62 76.7803 81.728 76.4203 81.944C76.0723 82.16 75.8083 82.46 75.6283 82.844C75.4603 83.228 75.3763 83.666 75.3763 84.158V89H73.1083Z" fill="white"/>
<path d="M19.556 67V58.54H24.836V59.356H20.552V62.32H24.572V63.136H20.552V67H19.556ZM28.4356 67.108C27.8596 67.108 27.3556 66.984 26.9236 66.736C26.4996 66.48 26.1716 66.12 25.9396 65.656C25.7076 65.184 25.5916 64.628 25.5916 63.988C25.5916 63.34 25.7076 62.784 25.9396 62.32C26.1716 61.856 26.4996 61.5 26.9236 61.252C27.3556 60.996 27.8596 60.868 28.4356 60.868C29.0196 60.868 29.5236 60.996 29.9476 61.252C30.3796 61.5 30.7116 61.856 30.9436 62.32C31.1836 62.784 31.3036 63.34 31.3036 63.988C31.3036 64.628 31.1836 65.184 30.9436 65.656C30.7116 66.12 30.3796 66.48 29.9476 66.736C29.5236 66.984 29.0196 67.108 28.4356 67.108ZM28.4356 66.316C29.0116 66.316 29.4676 66.12 29.8036 65.728C30.1396 65.328 30.3076 64.748 30.3076 63.988C30.3076 63.22 30.1356 62.64 29.7916 62.248C29.4556 61.848 29.0036 61.648 28.4356 61.648C27.8676 61.648 27.4156 61.848 27.0796 62.248C26.7436 62.64 26.5756 63.22 26.5756 63.988C26.5756 64.748 26.7436 65.328 27.0796 65.728C27.4156 66.12 27.8676 66.316 28.4356 66.316ZM32.8191 67V58.168H33.7911V67H32.8191ZM35.6785 67V58.168H36.6505V67H35.6785ZM41.0098 67.108C40.4338 67.108 39.9298 66.984 39.4978 66.736C39.0738 66.48 38.7458 66.12 38.5138 65.656C38.2818 65.184 38.1658 64.628 38.1658 63.988C38.1658 63.34 38.2818 62.784 38.5138 62.32C38.7458 61.856 39.0738 61.5 39.4978 61.252C39.9298 60.996 40.4338 60.868 41.0098 60.868C41.5938 60.868 42.0978 60.996 42.5218 61.252C42.9538 61.5 43.2858 61.856 43.5178 62.32C43.7578 62.784 43.8778 63.34 43.8778 63.988C43.8778 64.628 43.7578 65.184 43.5178 65.656C43.2858 66.12 42.9538 66.48 42.5218 66.736C42.0978 66.984 41.5938 67.108 41.0098 67.108ZM41.0098 66.316C41.5858 66.316 42.0418 66.12 42.3778 65.728C42.7138 65.328 42.8818 64.748 42.8818 63.988C42.8818 63.22 42.7098 62.64 42.3658 62.248C42.0298 61.848 41.5778 61.648 41.0098 61.648C40.4418 61.648 39.9898 61.848 39.6538 62.248C39.3178 62.64 39.1498 63.22 39.1498 63.988C39.1498 64.748 39.3178 65.328 39.6538 65.728C39.9898 66.12 40.4418 66.316 41.0098 66.316ZM46.9193 67L44.6873 60.976H45.7193L47.5793 66.28H47.2673L49.1873 60.976H50.0273L51.9113 66.28H51.6113L53.4833 60.976H54.4673L52.2233 67H51.2873L49.3433 61.612H49.8233L47.8673 67H46.9193ZM60.9939 67.108C60.2819 67.108 59.7419 66.912 59.3739 66.52C59.0139 66.128 58.8339 65.528 58.8339 64.72V60.976H59.8059V64.696C59.8059 65.248 59.9179 65.656 60.1419 65.92C60.3659 66.176 60.7139 66.304 61.1859 66.304C61.7139 66.304 62.1379 66.132 62.4579 65.788C62.7779 65.444 62.9379 64.984 62.9379 64.408V60.976H63.9099V67H62.9619V65.644H63.1179C62.9499 66.108 62.6779 66.468 62.3019 66.724C61.9339 66.98 61.4979 67.108 60.9939 67.108ZM67.7997 67.108C67.3197 67.108 66.8717 67.044 66.4557 66.916C66.0397 66.78 65.6957 66.592 65.4237 66.352L65.7597 65.668C66.0557 65.9 66.3757 66.072 66.7197 66.184C67.0717 66.296 67.4357 66.352 67.8117 66.352C68.2917 66.352 68.6517 66.268 68.8917 66.1C69.1397 65.924 69.2637 65.684 69.2637 65.38C69.2637 65.148 69.1837 64.964 69.0237 64.828C68.8717 64.684 68.6197 64.572 68.2677 64.492L67.1517 64.264C66.6397 64.152 66.2557 63.964 65.9997 63.7C65.7437 63.428 65.6157 63.084 65.6157 62.668C65.6157 62.316 65.7077 62.008 65.8917 61.744C66.0757 61.472 66.3437 61.26 66.6957 61.108C67.0477 60.948 67.4597 60.868 67.9317 60.868C68.3717 60.868 68.7757 60.936 69.1437 61.072C69.5197 61.2 69.8317 61.388 70.0797 61.636L69.7317 62.308C69.4917 62.076 69.2157 61.904 68.9037 61.792C68.5997 61.672 68.2837 61.612 67.9557 61.612C67.4837 61.612 67.1277 61.708 66.8877 61.9C66.6557 62.084 66.5397 62.328 66.5397 62.632C66.5397 62.864 66.6117 63.056 66.7557 63.208C66.9077 63.352 67.1397 63.46 67.4517 63.532L68.5677 63.76C69.1117 63.88 69.5157 64.068 69.7797 64.324C70.0517 64.572 70.1877 64.908 70.1877 65.332C70.1877 65.692 70.0877 66.008 69.8877 66.28C69.6877 66.544 69.4077 66.748 69.0477 66.892C68.6957 67.036 68.2797 67.108 67.7997 67.108ZM77.3497 67.108C76.7737 67.108 76.2697 66.984 75.8377 66.736C75.4137 66.48 75.0857 66.12 74.8537 65.656C74.6217 65.184 74.5057 64.628 74.5057 63.988C74.5057 63.34 74.6217 62.784 74.8537 62.32C75.0857 61.856 75.4137 61.5 75.8377 61.252C76.2697 60.996 76.7737 60.868 77.3497 60.868C77.9337 60.868 78.4377 60.996 78.8617 61.252C79.2937 61.5 79.6257 61.856 79.8577 62.32C80.0977 62.784 80.2177 63.34 80.2177 63.988C80.2177 64.628 80.0977 65.184 79.8577 65.656C79.6257 66.12 79.2937 66.48 78.8617 66.736C78.4377 66.984 77.9337 67.108 77.3497 67.108ZM77.3497 66.316C77.9257 66.316 78.3817 66.12 78.7177 65.728C79.0537 65.328 79.2217 64.748 79.2217 63.988C79.2217 63.22 79.0497 62.64 78.7057 62.248C78.3697 61.848 77.9177 61.648 77.3497 61.648C76.7817 61.648 76.3297 61.848 75.9937 62.248C75.6577 62.64 75.4897 63.22 75.4897 63.988C75.4897 64.748 75.6577 65.328 75.9937 65.728C76.3297 66.12 76.7817 66.316 77.3497 66.316ZM81.7332 67V62.368C81.7332 62.144 81.7212 61.916 81.6972 61.684C81.6812 61.444 81.6612 61.208 81.6372 60.976H82.5732L82.6932 62.296H82.5492C82.7252 61.832 83.0052 61.48 83.3892 61.24C83.7812 60.992 84.2332 60.868 84.7452 60.868C85.4572 60.868 85.9932 61.06 86.3532 61.444C86.7212 61.82 86.9052 62.416 86.9052 63.232V67H85.9332V63.292C85.9332 62.724 85.8172 62.312 85.5852 62.056C85.3612 61.792 85.0092 61.66 84.5292 61.66C83.9692 61.66 83.5252 61.832 83.1972 62.176C82.8692 62.52 82.7052 62.98 82.7052 63.556V67H81.7332Z" fill="#8A8F9F"/>
</svg>
